<svg width="27" height="27" viewBox="0 0 27 27" fill="none" xmlns="http://www.w3.org/2000/svg">
<path d="M21.6451 5.59092C20.9731 3.93839 19.8234 2.52377 18.3432 1.52786C16.8629 0.531951 15.1192 0 13.335 0C11.5508 0 9.80712 0.531951 8.32684 1.52786C6.84656 2.52377 5.69693 3.93839 5.02489 5.59092C3.52977 6.25385 2.25919 7.33632 1.36726 8.70702C0.475324 10.0777 0.000377459 11.6777 2.90328e-05 13.313C-0.0120937 17.811 3.77383 21.7005 8.2665 21.8217C9.78312 21.8571 11.2817 21.4873 12.6076 20.7503V25.9428C12.6076 26.1356 12.6843 26.3206 12.8207 26.457C12.9571 26.5934 13.1421 26.67 13.335 26.67C13.5279 26.67 13.7129 26.5934 13.8493 26.457C13.9857 26.3206 14.0624 26.1356 14.0624 25.9428V20.7503C15.323 21.4514 16.7415 21.8201 18.1841 21.8217H18.3987C22.8962 21.7005 26.6821 17.8098 26.67 13.313C26.6696 11.6777 26.1947 10.0777 25.3027 8.70702C24.4108 7.33632 23.1402 6.25385 21.6451 5.59092ZM18.3659 20.3672C16.8238 20.4079 15.3113 19.9393 14.0624 19.034V13.7869L19.4788 11.0792C19.6514 10.993 19.7828 10.8418 19.8439 10.6588C19.9051 10.4759 19.8911 10.2761 19.8049 10.1035C19.7187 9.93083 19.5675 9.7995 19.3845 9.73835C19.2015 9.67721 19.0017 9.69125 18.829 9.7774L14.0624 12.1603V8.48898C14.0624 8.2961 13.9857 8.11112 13.8493 7.97474C13.7129 7.83836 13.5279 7.76174 13.335 7.76174C13.1421 7.76174 12.9571 7.83836 12.8207 7.97474C12.6843 8.11112 12.6076 8.2961 12.6076 8.48898V15.0693L7.84099 12.6864C7.66834 12.6002 7.46853 12.5862 7.28552 12.6473C7.1025 12.7085 6.95128 12.8398 6.86511 13.0124C6.77895 13.185 6.7649 13.3848 6.82605 13.5678C6.88721 13.7508 7.01856 13.902 7.19122 13.9881L12.6076 16.6959V19.034C11.3579 19.9376 9.84592 20.406 8.30408 20.3672C4.5812 20.2739 1.44506 17.0462 1.45475 13.3203C1.45468 11.9195 1.87477 10.5508 2.66074 9.39115C3.44672 8.23151 4.56245 7.33418 5.86378 6.81511C5.95827 6.77694 6.04367 6.71934 6.11447 6.64605C6.18527 6.57276 6.23987 6.48541 6.27474 6.38967C6.80328 4.9422 7.7641 3.69217 9.02699 2.80895C10.2899 1.92574 11.7938 1.45204 13.335 1.45204C14.8762 1.45204 16.3801 1.92574 17.643 2.80895C18.9059 3.69217 19.8667 4.9422 20.3953 6.38967C20.4301 6.48541 20.4847 6.57276 20.5555 6.64605C20.6263 6.71934 20.7117 6.77694 20.8062 6.81511C22.1071 7.33381 23.2225 8.23055 24.0084 9.3895C24.7944 10.5485 25.2148 11.9164 25.2152 13.3166C25.2249 17.0438 22.0888 20.2703 18.3659 20.3672Z" fill="black"/>
</svg>
