<svg width="29" height="29" viewBox="0 0 29 29" fill="none" xmlns="http://www.w3.org/2000/svg">
<path d="M14.335 7.66751C15.2875 3.28085 18.885 1.04099 26.7175 1.00001C26.8427 0.999457 26.9668 1.02782 27.0826 1.08347C27.1983 1.13913 27.3035 1.22096 27.3921 1.32426C27.4806 1.42756 27.5507 1.55028 27.5985 1.68535C27.6462 1.82042 27.6705 1.96517 27.67 2.11126V22.1138C27.67 22.4085 27.5696 22.6911 27.391 22.8995C27.2124 23.1079 26.9701 23.225 26.7175 23.225C19.0975 23.225 16.1537 25.0176 14.335 27.67M14.335 7.66751C13.3825 3.28085 9.78503 1.04099 1.95251 1.00001C1.82729 0.999457 1.70322 1.02782 1.58744 1.08347C1.47167 1.13913 1.36648 1.22096 1.27793 1.32426C1.18939 1.42756 1.11925 1.55028 1.07155 1.68535C1.02385 1.82042 0.999535 1.96517 1.00001 2.11126V21.9797C1.00001 22.6659 1.36434 23.225 1.95251 23.225C9.5725 23.225 12.527 25.0308 14.335 27.67M14.335 7.66751V27.67" stroke="black" stroke-width="1.875" stroke-linecap="round" stroke-linejoin="round"/>
</svg>
