<svg width="27" height="27" viewBox="0 0 27 27" fill="none" xmlns="http://www.w3.org/2000/svg">
<path d="M13.335 26.67C13.1508 26.6694 12.972 26.6011 12.8265 26.476C8.19186 22.4842 4.99928 19.0469 2.76531 15.6558C-0.0855026 11.3222 -0.735689 7.32121 0.831426 3.76377C1.94841 1.22274 5.15766 -0.856283 8.90873 0.354171C10.6972 0.926817 12.2576 2.15487 13.335 3.83769C14.4124 2.15487 15.9728 0.926817 17.7613 0.354171C21.504 -0.837803 24.7216 1.22274 25.8386 3.76377C27.4057 7.32121 26.7555 11.3222 23.9047 15.6558C21.6707 19.0469 18.4781 22.4842 13.8435 26.476C13.698 26.6011 13.5192 26.6694 13.335 26.67ZM6.77479 1.86031C5.88225 1.8218 4.99709 2.05347 4.21435 2.53045C3.4316 3.00742 2.78082 3.71169 2.33185 4.56766C1.03982 7.50602 1.62332 10.777 4.1157 14.5562C6.76443 18.3434 9.86602 21.7131 13.335 24.5725C16.8034 21.7159 19.905 18.3493 22.5543 14.5655C25.055 10.777 25.6302 7.50602 24.3381 4.5769C23.5046 2.72888 21.0039 1.2597 18.2197 2.12827C17.327 2.42072 16.4994 2.91712 15.7902 3.58551C15.081 4.2539 14.5059 5.07948 14.1019 6.00912C14.0391 6.17859 13.9323 6.32354 13.795 6.42556C13.6577 6.52757 13.4961 6.58204 13.3308 6.58204C13.1656 6.58204 13.004 6.52757 12.8667 6.42556C12.7294 6.32354 12.6226 6.17859 12.5598 6.00912C12.1588 5.07715 11.5847 4.24964 10.875 3.58084C10.1654 2.91203 9.33624 2.41702 8.44194 2.12827C7.90009 1.95382 7.33902 1.86364 6.77479 1.86031Z" fill="#010101"/>
</svg>
