<svg width="27" height="27" viewBox="0 0 27 27" fill="none" xmlns="http://www.w3.org/2000/svg">
<path d="M26.1169 13.1209L14.75 1.09179L13.9881 0.285077C13.8145 0.10248 13.5798 0 13.3351 0C13.0904 0 12.8556 0.10248 12.682 0.285077L0.55317 13.1209C0.375286 13.3085 0.234701 13.532 0.139714 13.778C0.0447269 14.0241 -0.00273767 14.2879 0.000121934 14.5537C0.0118889 15.6501 0.87382 16.5253 1.90931 16.5253H3.15956V26.67H23.5106V16.5253H24.7873C25.2903 16.5253 25.7639 16.3166 26.1199 15.9397C26.2951 15.7548 26.434 15.5348 26.5284 15.2926C26.6229 15.0504 26.671 14.7908 26.67 14.5288C26.67 13.9993 26.4729 13.4978 26.1169 13.1209ZM14.9824 24.4274H11.6877V18.0733H14.9824V24.4274ZM21.3925 14.2827V24.4274H16.8651V17.3258C16.8651 16.6374 16.3386 16.0799 15.6885 16.0799H10.9817C10.3315 16.0799 9.80496 16.6374 9.80496 17.3258V24.4274H5.27761V14.2827H2.45354L13.338 2.76752L14.0175 3.48702L24.2195 14.2827H21.3925Z" fill="black"/>
</svg>
